<?xml version="1.0" encoding="UTF-8" standalone="no"?>
<!DOCTYPE svg PUBLIC "-//W3C//DTD SVG 1.1//EN"
 "http://www.w3.org/Graphics/SVG/1.1/DTD/svg11.dtd">
<!-- Generated by graphviz version 2.38.0 (20140413.2041)
 -->
<!-- Title: G Pages: 1 -->
<svg width="163pt" height="492pt"
 viewBox="0.00 0.00 163.00 492.00" xmlns="http://www.w3.org/2000/svg" xmlns:xlink="http://www.w3.org/1999/xlink">
<g id="graph0" class="graph" transform="scale(1 1) rotate(0) translate(4 488)">
<title>G</title>
<polygon fill="white" stroke="none" points="-4,4 -4,-488 159,-488 159,4 -4,4"/>
<g id="clust1" class="cluster"><title>cluster_Global</title>
<path fill="none" stroke="gray" d="M20,-8C20,-8 135,-8 135,-8 141,-8 147,-14 147,-20 147,-20 147,-464 147,-464 147,-470 141,-476 135,-476 135,-476 20,-476 20,-476 14,-476 8,-470 8,-464 8,-464 8,-20 8,-20 8,-14 14,-8 20,-8"/>
<text text-anchor="middle" x="77.5" y="-463.2" font-family="Times,serif" font-size="11.00" fill="gray">Global</text>
</g>
<g id="clust2" class="cluster"><title>cluster_\WrongWare</title>
<path fill="none" stroke="gray" d="M28,-16C28,-16 127,-16 127,-16 133,-16 139,-22 139,-28 139,-28 139,-436 139,-436 139,-442 133,-448 127,-448 127,-448 28,-448 28,-448 22,-448 16,-442 16,-436 16,-436 16,-28 16,-28 16,-22 22,-16 28,-16"/>
<text text-anchor="middle" x="77.5" y="-435.2" font-family="Times,serif" font-size="11.00" fill="gray">WrongWare</text>
</g>
<g id="clust3" class="cluster"><title>cluster_\WrongWare\SearchParser</title>
<path fill="none" stroke="gray" d="M36,-24C36,-24 119,-24 119,-24 125,-24 131,-30 131,-36 131,-36 131,-408 131,-408 131,-414 125,-420 119,-420 119,-420 36,-420 36,-420 30,-420 24,-414 24,-408 24,-408 24,-36 24,-36 24,-30 30,-24 36,-24"/>
<text text-anchor="middle" x="77.5" y="-407.2" font-family="Times,serif" font-size="11.00" fill="gray">SearchParser</text>
</g>
<!-- \\WrongWare\\SearchParser\\Token -->
<g id="node1" class="node"><title>\\WrongWare\\SearchParser\\Token</title>
<polygon fill="none" stroke="black" points="104.5,-392 50.5,-392 50.5,-356 104.5,-356 104.5,-392"/>
<text text-anchor="middle" x="77.5" y="-371.2" font-family="Courier,monospace" font-size="11.00">Token</text>
</g>
<!-- \\WrongWare\\SearchParser\\Group -->
<g id="node2" class="node"><title>\\WrongWare\\SearchParser\\Group</title>
<polygon fill="none" stroke="black" points="104.5,-338 50.5,-338 50.5,-302 104.5,-302 104.5,-338"/>
<text text-anchor="middle" x="77.5" y="-317.2" font-family="Courier,monospace" font-size="11.00">Group</text>
</g>
<!-- \\WrongWare\\SearchParser\\TokenStream -->
<g id="node3" class="node"><title>\\WrongWare\\SearchParser\\TokenStream</title>
<polygon fill="none" stroke="black" points="123,-284 32,-284 32,-248 123,-248 123,-284"/>
<text text-anchor="middle" x="77.5" y="-263.2" font-family="Courier,monospace" font-size="11.00">TokenStream</text>
</g>
<!-- \\WrongWare\\SearchParser\\Parser -->
<g id="node4" class="node"><title>\\WrongWare\\SearchParser\\Parser</title>
<polygon fill="none" stroke="black" points="106,-230 49,-230 49,-194 106,-194 106,-230"/>
<text text-anchor="middle" x="77.5" y="-209.2" font-family="Courier,monospace" font-size="11.00">Parser</text>
</g>
<!-- \\WrongWare\\SearchParser\\Term -->
<g id="node5" class="node"><title>\\WrongWare\\SearchParser\\Term</title>
<polygon fill="none" stroke="black" points="104.5,-176 50.5,-176 50.5,-140 104.5,-140 104.5,-176"/>
<text text-anchor="middle" x="77.5" y="-155.2" font-family="Courier,monospace" font-size="11.00">Term</text>
</g>
<!-- \\WrongWare\\SearchParser\\Lexer -->
<g id="node6" class="node"><title>\\WrongWare\\SearchParser\\Lexer</title>
<polygon fill="none" stroke="black" points="104.5,-122 50.5,-122 50.5,-86 104.5,-86 104.5,-122"/>
<text text-anchor="middle" x="77.5" y="-101.2" font-family="Courier,monospace" font-size="11.00">Lexer</text>
</g>
<!-- \\WrongWare\\SearchParser\\Operator -->
<g id="node7" class="node"><title>\\WrongWare\\SearchParser\\Operator</title>
<polygon fill="none" stroke="black" points="113,-68 42,-68 42,-32 113,-32 113,-68"/>
<text text-anchor="middle" x="77.5" y="-47.2" font-family="Courier,monospace" font-size="11.00">Operator</text>
</g>
</g>
</svg>
